<?xml version="1.0" encoding="UTF-8"?>
<svg id="Layer_1" xmlns="http://www.w3.org/2000/svg" version="1.1" viewBox="0 0 350 75">
  <!-- Generator: Adobe Illustrator 29.8.2, SVG Export Plug-In . SVG Version: 2.1.1 Build 3)  -->
  <defs>
    <style>
      .st0 {
        fill: #fff;
      }
    </style>
  </defs>
  <path class="st0" d="M46.23,12.54c5.08,3.62,5.58,14.72-.86,19.51,6.82,2.92,2.74,15.01-1.27,19.49-.3.34-.8.8-1.43,1.27-3.23,2.44-7.08,3.87-11.07,4.26l-9.29.91-8.44,5.86,6.67-10.46c.05-.08.13-.12.22-.11,1.47.13,14.18,1,19.91-6.87,2.52-3.45,4.48-11.74-.02-14.12,4.75-4.25,7.24-15.5-1.07-16.53-6.54-.81-14.49.99-21.12.07l-4.53,15.52,4.51-.2,3.02-10.6c1.78.95,13.82-1.76,16.86,1.8,2.99,3.49,1.07,8.97-2.37,11.13,4.55,2.74,3.59,8.41,0,11.82-3.37,3.21-10.47,3.33-16.15,3.29l-.2.11-10.84,15.72,8.34-27.87-4.64.07-3.69,10.33-4.93.46,8.41-30.47s1.33-5.08,1.69-6c.04-.09.3-.15.21-.14-.09,0,11.34.23,25.77-.19,1.54-.04,3.64.05,6.3,1.94ZM24.29,31.34h5.45c1.94,0,2.68-.2,3.62-1.17,1.32-1.36,1.1-4.37-1.27-4.47-2.46-.1-4.45.13-6.44.07-.12,0-.24.05-.27.17l-1.34,5.09c-.05.17.06.32.23.32ZM20.64,43.3c-.05.18.05.32.23.32h8.87c2.52-.36,5.58-7.06.4-7.53-.95-.09-6.46-.18-7.38.14-.06.02-.11.1-.13.16l-2,6.91Z"/>
  <g>
    <path class="st0" d="M76.34,38.56h-14.16l-1.16,4.25h15.85l-1.47,5.44h-25.27l6.69-24.46h24.48l-1.53,5.44h-15.06l-1.05,3.88h14.21l-1.53,5.44Z"/>
    <path class="st0" d="M93.18,29.3h-9.85l1.58-5.52h29.27l-1.53,5.52h-10.11l-5.11,18.94h-9.37l5.11-18.94Z"/>
    <path class="st0" d="M125.39,29.3h-9.85l1.58-5.52h29.27l-1.53,5.52h-10.11l-5.11,18.94h-9.37l5.11-18.94Z"/>
    <path class="st0" d="M169.79,38.56h-14.16l-1.16,4.25h15.85l-1.47,5.44h-25.27l6.69-24.46h24.48l-1.53,5.44h-15.06l-1.05,3.88h14.21l-1.53,5.44Z"/>
    <path class="st0" d="M181.44,24.33c5.17-.8,15.35-1.33,21.22.36,8.37,2.35,5.72,11-2.95,12.08l-.05.15c4.55,1.45,3.4,9.16,5.05,11.32h-9.69c-1.89-3.22.73-10.29-8.37-9.15l-2.53,9.15h-9.32l6.63-23.92ZM187.97,34.35c11.7,1.3,14.51-6.9,1.53-5.52l-1.53,5.52Z"/>
    <path class="st0" d="M214.17,24.26c5.22-.68,14.92-1.16,20.11.22,8.21,1.61,6.85,9.7-1.32,10.56v.07c7.92,1.42,7.06,9.32.21,11.43-4.17,2.22-20.17,2.21-25.43,1.34l6.42-23.62ZM218.17,43.31c11.7,1.53,15.4-6.38,1.47-5.48l-1.47,5.48ZM221.11,33.15c11.18,1.09,12.57-5.68,1.21-4.32l-1.21,4.32Z"/>
    <path class="st0" d="M248.51,24.33c5.17-.8,15.35-1.33,21.22.36,8.37,2.35,5.72,11-2.95,12.08l-.05.15c4.55,1.45,3.4,9.16,5.05,11.32h-9.69c-1.89-3.22.73-10.29-8.37-9.15l-2.53,9.15h-9.32l6.63-23.92ZM255.04,34.35c11.7,1.3,14.51-6.9,1.53-5.52l-1.53,5.52Z"/>
    <path class="st0" d="M315.33,34.49c1.43,16.26-37.45,20.12-37.85,3.16-1.27-16.23,37.64-20.44,37.85-3.16ZM291.37,30.54c-9.22,6.32-.2,17.5,10.16,11.03,8.81-6.32.74-17.67-10.16-11.03Z"/>
    <path class="st0" d="M319.24,41.39c2.67,1.09,13.33,3.66,14.79-.18-1.63-3.45-14.19-3.48-13.58-9.54-.97-8.24,18.92-9.83,25.69-7l-3,5.37c-1.21-.44-4.37-1.23-7.79-1.16-8.04.26-4.67,3.4.74,4.54,4.69,1.41,8.11,3.38,8.11,6.64.73,9.79-21.76,10.05-28.27,6.57l3.32-5.23Z"/>
  </g>
  <text/>
  <text/>
</svg>